<svg xmlns="http://www.w3.org/2000/svg" fill="none" viewBox="94.56490020618556 166.77151800000001 547.1257731958763 462.72" style="max-height: 500px" width="547.1257731958763" height="462.72">
<g clip-path="url(#clip0_10_908)">
<mask height="723" width="702" y="0" x="0" maskUnits="userSpaceOnUse" style="mask-type:luminance" id="mask0_10_908">
<path fill="white" d="M702 0H0V723H702V0Z"/>
</mask>
<g mask="url(#mask0_10_908)">
<mask height="723" width="702" y="0" x="0" maskUnits="userSpaceOnUse" style="mask-type:luminance" id="mask1_10_908">
<path fill="white" d="M0 0H702V723H0V0Z"/>
</mask>
<g mask="url(#mask1_10_908)">
<path fill="#C4C3FB" d="M522.665 442.405C544.945 425.29 567.83 446.902 577.905 435.528C586.389 425.427 581.219 405.966 587.236 401.49C592.827 396.257 608.263 401.855 616.097 391.434C623.038 382.203 607.124 366.5 613.907 359.51C621.093 352.104 631.225 336.829 626.264 330.591C620.751 323.657 602.697 334.005 597.203 335.626C587.378 338.525 574.854 325.606 561.4 332.813C553.15 337.232 561.598 350.792 554.02 359.251C545.48 368.781 533.953 351.658 517.144 367.175C492.039 390.348 523.327 413.294 516.561 436.766C514.387 444.308 521.187 443.188 522.665 442.405Z"/>
<path fill="#E0E0FF" d="M615.366 339.297C605.029 347.889 594.693 356.48 584.356 365.072C576.482 371.616 568.347 378.018 561.452 385.673C556.381 391.302 551.632 397.241 546.927 403.192C541.491 410.07 536.156 417.033 530.865 424.029C526.663 429.587 522.494 435.17 518.344 440.768C517.995 441.238 517.647 441.708 517.299 442.179C516.615 443.101 518.084 444.1 518.763 443.183C522.63 437.963 526.511 432.753 530.42 427.564C535.66 420.609 540.942 413.687 546.313 406.838C551.158 400.659 556.045 394.499 561.219 388.604C567.468 381.481 574.701 375.424 581.945 369.399C592.19 360.879 602.44 352.364 612.687 343.847L616.535 340.648C617.413 339.919 616.24 338.57 615.366 339.297Z"/>
<path fill="#E0E0FF" d="M606.123 348.801C607.727 348.651 609.345 348.673 610.947 348.844C612.329 348.991 613.809 349.174 614.976 350.005C615.906 350.667 616.873 349.187 615.946 348.526C614.569 347.546 612.864 347.273 611.231 347.086C609.408 346.878 607.577 346.887 605.753 347.058C605.281 347.102 604.989 347.68 605.08 348.112C605.19 348.627 605.65 348.845 606.123 348.801Z"/>
<path fill="#E0E0FF" d="M572.458 376.906C581.158 376.284 589.948 378.94 596.985 384.227C598.975 385.722 600.796 387.424 602.442 389.303C603.197 390.166 604.508 388.984 603.752 388.122C597.699 381.208 589.234 376.698 580.264 375.398C577.71 375.028 575.128 374.938 572.558 375.122C572.082 375.155 571.667 375.43 571.632 375.957C571.604 376.39 571.985 376.94 572.458 376.906Z"/>
<path fill="#E0E0FF" d="M592.068 360.597C592.885 359.788 593.183 358.539 593.415 357.439C593.773 355.749 593.969 354.026 594.136 352.306C594.303 350.583 594.427 348.857 594.583 347.134C594.685 346.004 594.741 344.769 595.05 343.848C595.417 342.748 593.743 342.161 593.376 343.259C593.034 344.281 592.971 345.44 592.867 346.509C592.708 348.169 592.59 349.834 592.439 351.496C592.286 353.151 592.127 354.816 591.822 356.45C591.709 357.062 591.57 357.673 591.374 358.262C591.317 358.427 591.153 358.837 591.147 358.85C591.095 358.95 591.037 359.046 590.975 359.14C590.845 359.34 590.979 359.158 590.892 359.243C590.079 360.047 591.252 361.405 592.068 360.597Z"/>
<path fill="#E0E0FF" d="M538.612 416.761C538.798 416.677 538.398 416.811 538.608 416.76C538.708 416.736 538.807 416.706 538.908 416.682C539.168 416.622 539.431 416.579 539.694 416.542C540.43 416.434 541.244 416.365 541.865 416.328C544.195 416.189 546.537 416.22 548.867 416.372C554.587 416.744 560.576 417.797 565.699 420.561C568.477 422.061 571.008 424.112 572.638 426.887C573.216 427.869 574.786 427.076 574.203 426.084C571.002 420.637 565.062 417.741 559.228 416.205C553.815 414.78 548.111 414.256 542.537 414.517C541.049 414.587 539.209 414.535 537.813 415.167C536.784 415.635 537.583 417.228 538.612 416.761Z"/>
<path fill="#E0E0FF" d="M525.086 373.256C525.906 374.127 526.892 374.86 527.789 375.642C529.405 377.048 530.978 378.504 532.485 380.033C536.585 384.191 540.269 388.892 542.728 394.267C544.251 397.593 545.267 401.184 545.495 404.853C545.564 405.996 547.32 406.124 547.249 404.968C546.832 398.229 544.1 392.013 540.29 386.562C537.229 382.183 533.507 378.346 529.539 374.83C528.85 374.219 528.152 373.619 527.454 373.02C527.325 372.909 527.196 372.798 527.068 372.686C526.987 372.616 526.726 372.386 526.783 372.437C526.868 372.513 526.647 372.312 526.595 372.263C526.527 372.199 526.461 372.133 526.397 372.066C525.612 371.229 524.297 372.416 525.086 373.256Z"/>
<path fill="#E0E0FF" d="M552.687 369.276C556.092 375.133 558.911 381.705 558.497 388.646C558.428 389.804 560.184 389.92 560.254 388.76C560.687 381.505 557.817 374.597 554.255 368.466C553.677 367.471 552.103 368.272 552.687 369.276Z"/>
<path fill="#E0E0FF" d="M517.285 397.417C520.47 399.838 522.809 403.434 524.723 406.936C526.807 410.742 528.53 414.831 529.555 419.069C529.987 420.858 530.329 422.714 530.221 424.56C530.152 425.718 531.908 425.834 531.976 424.675C532.202 420.84 530.922 416.881 529.598 413.345C527.94 408.925 525.748 404.645 522.954 400.858C521.6 399.022 520.068 397.297 518.258 395.921C517.344 395.226 516.376 396.725 517.285 397.417Z"/>
<path fill="#E0E0FF" d="M568.516 337.553C571.055 348.718 575.291 359.39 579.297 370.07C579.704 371.155 581.27 370.339 580.865 369.26C576.911 358.723 572.741 348.2 570.238 337.185C569.981 336.054 568.258 336.416 568.516 337.553Z"/>
<path fill="#E0E0FF" d="M555.082 395.835C558.245 395.348 561.54 395.514 564.715 395.844C568.59 396.247 572.488 397.023 576.119 398.506C577.914 399.238 579.696 400.173 581.159 401.48C581.999 402.23 583.318 401.062 582.469 400.303C579.536 397.683 575.746 396.255 572.004 395.317C568.067 394.332 563.991 393.825 559.942 393.782C558.198 393.765 556.437 393.827 554.712 394.092C553.597 394.264 553.967 396.006 555.082 395.835Z"/>
<path fill="#E0E0FF" d="M594.026 381.348C594.679 380.806 595.857 380.901 596.649 380.825C597.824 380.711 598.999 380.588 600.172 380.456C602.476 380.194 604.775 379.891 607.069 379.554C608.185 379.389 607.814 377.642 606.699 377.807C604.233 378.171 601.76 378.493 599.282 378.768C598.064 378.902 596.845 379.026 595.627 379.139C594.613 379.233 593.671 379.333 592.857 380.009C591.982 380.733 593.154 382.072 594.026 381.348Z"/>
<path fill="#C4C3FB" d="M244.264 477.704C239.579 474.219 234.34 473.836 232.406 467.474C231.115 463.226 230.672 458.716 228.811 454.657C223.782 443.691 210.015 440.558 199.563 437.655C187.975 434.436 175.393 432.188 163.511 435.533C155.796 437.702 148.308 441.43 141.941 446.396C138.51 449.073 135.452 451.751 131.132 452.746C126.39 453.838 121.963 453.664 117.426 455.737C112.744 457.878 108.195 460.328 103.817 463.066C101.618 464.441 96.462 466.483 96.4041 469.729C96.3706 471.617 97.908 473.037 98.3046 473.404C102.234 477.034 107.994 473.827 112.566 473.962C119.159 474.158 118.074 482.23 118.61 487.034C119.071 491.171 119.5 498.972 124.57 500.069C125.705 500.314 126.884 500.047 128.016 499.772C135.972 497.84 149.904 490.396 158.13 493.436C163.264 495.335 163.969 500.025 167.944 505.232C175.197 514.733 188.048 519.022 197.815 519.127C207.771 519.236 217.215 514.848 224.704 508.284C230.178 503.485 236.845 497.257 237.027 489.477C237.034 489.207 237.031 488.935 237.022 488.66C236.863 484.155 242.751 484.668 245.491 482.948C248.359 481.148 246.126 479.09 244.264 477.704Z"/>
<path fill="#E0E0FF" d="M108.38 466.659C117.769 464.183 127.252 462.053 136.82 460.454C144.606 459.154 152.454 458.201 160.329 457.773C166.667 457.429 173.025 457.426 179.348 457.921C184.527 458.326 189.684 459.061 194.744 460.226C198.864 461.175 202.882 462.404 206.81 463.971C210.071 465.27 213.242 466.793 216.303 468.515C218.918 469.987 221.119 471.397 223.629 473.106C225.613 474.459 227.562 475.864 229.56 477.197C231.196 478.286 232.876 479.361 234.69 480.13C237.424 481.29 240.475 481.274 243.392 481.585L245.495 481.808C246.614 481.927 246.917 480.175 245.793 480.056C243.73 479.837 241.668 479.618 239.604 479.399C238.886 479.322 238.149 479.287 237.437 479.168C237.238 479.135 237.041 479.073 236.845 479.022C236.762 479 236.443 478.901 236.745 478.995C236.645 478.964 236.546 478.934 236.448 478.901C235.635 478.627 234.85 478.273 234.09 477.878C233.675 477.663 233.268 477.436 232.865 477.198C232.654 477.075 232.445 476.948 232.236 476.821C232.185 476.789 232.134 476.758 232.083 476.726C231.918 476.624 232.204 476.803 232.075 476.723C231.963 476.652 231.852 476.582 231.741 476.512C229.794 475.269 227.919 473.916 226.021 472.603C223.66 470.969 221.267 469.384 218.8 467.918C215.87 466.176 212.839 464.609 209.713 463.253C205.931 461.612 202.017 460.279 198.033 459.216C193.215 457.932 188.292 457.06 183.334 456.515C177.25 455.846 171.111 455.66 164.988 455.815C157.442 456.007 149.909 456.724 142.429 457.793C133.274 459.102 124.192 460.938 115.195 463.121C112.707 463.724 110.225 464.355 107.749 465.007C106.657 465.296 107.294 466.945 108.38 466.659Z"/>
<path fill="#E0E0FF" d="M148.317 456.602C139.725 460.707 132.613 467.953 129.283 477.094C128.972 477.947 128.715 478.814 128.465 479.687C128.145 480.798 129.881 481.071 130.198 479.973C130.262 479.749 130.323 479.524 130.388 479.301C130.455 479.069 130.39 479.291 130.415 479.21C130.442 479.12 130.471 479.031 130.499 478.942C130.576 478.701 130.657 478.458 130.741 478.218C131.213 476.867 131.778 475.548 132.42 474.269C134.421 470.28 137.206 466.682 140.546 463.766C143.088 461.545 145.924 459.715 148.949 458.271C149.971 457.783 149.35 456.108 148.317 456.602Z"/>
<path fill="#E0E0FF" d="M179.975 456.366C174.047 457.81 168.301 460.081 163.221 463.586C158.428 466.892 154.42 471.244 151.457 476.307C149.702 479.309 148.349 482.531 147.328 485.86C147.186 486.326 147.292 486.823 147.759 487.043C148.147 487.225 148.784 487.052 148.926 486.59C150.64 480.999 153.324 475.746 157.156 471.34C160.837 467.105 165.459 463.809 170.495 461.482C173.595 460.047 176.843 458.952 180.148 458.148C181.236 457.884 181.077 456.099 179.975 456.366Z"/>
<path fill="#E0E0FF" d="M136.992 458.212C133.832 457.133 130.793 455.536 127.887 453.896C127.473 453.662 126.908 453.932 126.722 454.348C126.509 454.82 126.739 455.297 127.153 455.53C130.059 457.169 133.099 458.768 136.258 459.846C136.706 460 137.212 459.866 137.423 459.394C137.607 458.987 137.442 458.366 136.992 458.212Z"/>
<path fill="#E0E0FF" d="M229.311 475.754C229.761 475.64 229.048 475.785 228.9 475.807C228.54 475.858 228.179 475.905 227.818 475.955C226.695 476.107 225.574 476.271 224.456 476.461C221.151 477.022 217.868 477.783 214.673 478.827C207.207 481.27 199.568 485.57 196.003 493.057C193.592 498.121 193.547 503.888 194.738 509.257C194.984 510.365 196.736 510.185 196.487 509.063C195.448 504.378 195.297 499.378 197.136 494.842C198.617 491.19 201.224 488.194 204.345 485.891C210.102 481.639 217.201 479.558 224.047 478.344C225.99 477.999 228.027 477.908 229.942 477.421C230.407 477.302 230.596 476.665 230.447 476.257C230.263 475.757 229.77 475.638 229.311 475.754Z"/>
<path fill="#E0E0FF" d="M186.499 445.179C186.312 447.472 187.441 449.824 188.485 451.762C190.156 454.867 192.432 457.62 195.087 459.888C195.954 460.63 197.071 459.226 196.205 458.485C193.758 456.394 191.676 453.873 190.099 451.034C189.515 449.984 189.012 448.87 188.64 447.719C188.506 447.303 188.386 446.881 188.314 446.449C188.262 446.133 188.225 445.596 188.237 445.468C188.33 444.318 186.595 444.023 186.499 445.179Z"/>
<path fill="#E0E0FF" d="M156.201 440.837C154.502 443.854 154.525 447.173 156.176 450.162C157.745 453.002 160.336 455.166 162.9 457.027C163.818 457.692 164.941 456.291 164.018 455.622C161.736 453.966 159.467 452.107 157.943 449.669C157.253 448.565 156.761 447.317 156.658 445.998C156.533 444.417 157.035 442.935 157.802 441.573C158.372 440.561 156.765 439.835 156.201 440.837Z"/>
<path fill="#E0E0FF" d="M217.338 450.355C216.087 454.824 216.962 459.646 218.576 463.866C220.093 467.836 222.33 471.625 225.259 474.664C226.053 475.487 227.166 474.074 226.38 473.258C223.672 470.447 221.625 466.865 220.225 463.201C218.714 459.248 217.908 454.829 219.079 450.644C219.393 449.524 217.648 449.247 217.338 450.355Z"/>
<path fill="#E0E0FF" d="M206.236 461.975C202.085 462.906 198.077 464.485 194.321 466.521C190.471 468.607 186.81 471.16 183.803 474.403C182.3 476.025 180.989 477.848 180.047 479.862C179.557 480.907 181.155 481.634 181.643 480.592C183.286 477.08 186.127 474.258 189.145 471.941C192.491 469.373 196.216 467.323 200.104 465.758C202.153 464.932 204.258 464.234 206.408 463.752C207.503 463.507 207.342 461.727 206.236 461.975Z"/>
<path fill="#9494CE" d="M246.976 465.04C246.621 464.943 246.267 464.845 245.918 464.735C245.258 464.553 244.603 464.36 243.947 464.159C227.755 459.278 213.668 452.007 201.444 442.994C200.848 442.56 200.259 442.12 199.674 441.673C194.279 437.567 189.259 433.117 184.58 428.392C184.155 427.95 183.724 427.515 183.305 427.073C179.423 423.055 175.785 418.836 172.384 414.459C172.042 414.024 171.705 413.586 171.374 413.143C166.613 406.907 162.312 400.349 158.432 393.577C158.185 393.151 157.943 392.719 157.701 392.287C155.78 388.881 153.962 385.424 152.252 381.923C152.019 381.454 151.792 380.984 151.565 380.509C148.316 373.757 145.428 366.856 142.872 359.904C142.697 359.43 142.523 358.956 142.355 358.482C140.173 352.434 138.236 346.347 136.525 340.285C136.393 339.825 136.266 339.359 136.134 338.901C135.292 335.847 134.503 332.807 133.774 329.775C133.652 329.291 133.536 328.806 133.426 328.327C131.461 320.061 129.898 311.908 128.665 304.011C128.591 303.535 128.517 303.059 128.443 302.589C127.43 295.903 126.654 289.416 126.08 283.207C126.033 282.692 125.985 282.178 125.944 281.669C125.371 275.141 125.022 268.944 124.856 263.179C124.842 262.637 124.828 262.102 124.815 261.573C124.573 251.42 124.895 242.698 125.537 236.023C125.635 236.256 125.728 236.489 125.827 236.723L125.827 236.728C126.223 237.679 126.618 238.617 127.013 239.549L127.014 239.561C132.971 253.589 139.233 265.743 145.643 276.559C145.877 276.956 146.11 277.34 146.349 277.731C149.587 283.151 152.872 288.23 156.174 293.036C156.43 293.419 156.686 293.79 156.947 294.167C160.239 298.914 163.542 303.395 166.836 307.677C167.114 308.034 167.392 308.392 167.67 308.749C168.705 310.082 169.738 311.401 170.776 312.697C171.035 313.032 171.306 313.365 171.57 313.693C176.128 319.387 180.652 324.751 185.1 329.964C185.389 330.308 185.684 330.652 185.972 330.991C187.389 332.653 188.793 334.293 190.19 335.927C190.485 336.277 190.786 336.627 191.081 336.976C194.35 340.809 197.551 344.599 200.673 348.426C200.937 348.754 201.207 349.081 201.471 349.409C207.132 356.394 212.513 363.508 217.476 371.204C217.714 371.571 217.952 371.943 218.189 372.316C219.261 374.007 220.316 375.723 221.345 377.478C221.559 377.84 221.772 378.203 221.98 378.571C224.609 383.101 227.089 387.853 229.401 392.908C229.589 393.321 229.777 393.734 229.959 394.147C232.566 399.974 234.954 406.198 237.09 412.944L237.09 412.949C237.233 413.396 237.37 413.849 237.508 414.307C237.94 415.683 238.349 417.084 238.755 418.51C238.879 418.945 239.004 419.387 239.124 419.836C242.706 432.809 245.393 447.644 246.976 465.04Z"/>
<path fill="#D7D4F7" d="M245.921 464.752C245.261 464.57 244.606 464.377 243.95 464.176C234.336 451.07 224.995 437.754 215.974 424.207C206.256 409.608 196.908 394.75 188.017 379.602C179.14 364.477 170.719 349.067 162.832 333.367C155.004 317.765 147.698 301.88 141.021 285.72C137.679 277.626 134.496 269.458 131.479 261.228C128.609 253.403 125.331 245.225 125.816 236.718L125.816 236.712C125.847 236.149 125.897 235.59 125.963 235.024C126.06 234.215 127.266 234.461 127.169 235.258C126.997 236.682 126.95 238.115 127.002 239.539L127.003 239.551C127.035 240.446 127.103 241.339 127.213 242.228C127.779 246.895 129.257 251.374 130.817 255.768C132.303 259.95 133.841 264.111 135.425 268.256C138.51 276.371 141.767 284.424 145.173 292.411C152.013 308.461 159.47 324.232 167.448 339.719C175.426 355.201 183.921 370.405 192.855 385.327C201.757 400.203 211.099 414.809 220.793 429.157C228.926 441.196 237.317 453.052 245.921 464.752Z"/>
<path fill="#D7D4F7" d="M146.356 277.314C144.841 279.7 143.381 282.123 142.131 284.68C142.12 284.699 142.11 284.724 142.1 284.743C141.751 285.469 140.648 284.921 141.003 284.194C141.168 283.856 141.338 283.517 141.514 283.178C142.321 281.596 143.213 280.055 144.142 278.535C144.633 277.737 145.142 276.938 145.651 276.144C145.884 276.54 146.117 276.925 146.356 277.314Z"/>
<path fill="#D7D4F7" d="M156.955 293.856C154.876 297.527 152.871 301.241 150.94 304.991C150.924 305.017 150.908 305.042 150.886 305.068C150.493 305.666 149.486 305.14 149.837 304.443C149.971 304.179 150.112 303.915 150.252 303.651C151.132 301.936 152.036 300.226 152.959 298.532C154.011 296.586 155.087 294.651 156.182 292.727C156.438 293.109 156.693 293.48 156.955 293.856Z"/>
<path fill="#D7D4F7" d="M167.673 308.539C167.479 308.867 167.272 309.197 167.072 309.526C164.329 313.949 161.36 318.246 159.241 323.022C159.2 323.109 159.159 323.191 159.124 323.278C158.805 324.02 157.703 323.472 158.027 322.735C158.195 322.355 158.368 321.973 158.547 321.592C159.627 319.284 160.896 317.074 162.232 314.914C163.77 312.424 165.339 309.968 166.84 307.469C167.118 307.826 167.396 308.182 167.673 308.539Z"/>
<path fill="#D7D4F7" d="M171.569 313.519C167.912 318.055 164.581 322.866 161.611 327.894C161.526 328.033 161.448 328.172 161.364 328.311C161.18 328.62 160.849 328.683 160.583 328.585C160.289 328.488 160.074 328.193 160.221 327.85C160.23 327.819 160.246 327.794 160.261 327.763C160.492 327.365 160.729 326.973 160.967 326.581C162.109 324.678 163.295 322.802 164.542 320.963C166.496 318.062 168.58 315.241 170.777 312.525C171.035 312.859 171.305 313.192 171.569 313.519Z"/>
<path fill="#D7D4F7" d="M185.971 330.949C184.522 333.964 183.102 336.983 181.701 340.018C180.504 342.603 179.32 345.193 178.148 347.794C177.087 350.139 175.748 352.622 175.963 355.279C175.971 355.405 175.95 355.515 175.903 355.603C175.672 356.098 174.793 356.06 174.734 355.379C174.685 354.762 174.707 354.152 174.789 353.549C175.102 351.204 176.254 348.996 177.213 346.876C179.783 341.198 182.395 335.54 185.099 329.923C185.388 330.267 185.682 330.611 185.971 330.949Z"/>
<path fill="#D7D4F7" d="M191.073 336.979C187.462 345.335 183.474 353.516 179.131 361.503C179.121 361.522 179.116 361.535 179.105 361.554C178.719 362.259 177.611 361.717 178.002 361.005C178.143 360.747 178.284 360.488 178.424 360.224C179.936 357.434 181.398 354.624 182.818 351.781C185.425 346.578 187.879 341.285 190.182 335.932C190.477 336.281 190.778 336.63 191.073 336.979Z"/>
<path fill="#D7D4F7" d="M201.455 349.507C201.046 350.052 200.638 350.603 200.247 351.158C194.854 358.833 191.336 367.673 187.872 376.365C187.827 376.483 187.757 376.567 187.684 376.627C187.26 376.945 186.513 376.451 186.769 375.817C186.829 375.667 186.889 375.518 186.95 375.368C187.89 373.004 188.837 370.64 189.826 368.296C192.754 361.363 196.103 354.487 200.657 348.524C200.921 348.852 201.191 349.179 201.455 349.507Z"/>
<path fill="#D7D4F7" d="M218.161 372.571C217.844 372.994 217.538 373.416 217.233 373.844C211.227 382.246 206.213 391.374 202.302 400.973C202.293 401.009 202.277 401.04 202.262 401.078C201.962 401.831 200.859 401.282 201.16 400.536C201.276 400.256 201.386 399.981 201.508 399.701C202.518 397.248 203.602 394.831 204.759 392.449C208.337 385.074 212.592 378.037 217.449 371.461C217.686 371.827 217.924 372.199 218.161 372.571Z"/>
<path fill="#D7D4F7" d="M221.949 378.864C220.373 380.291 218.885 381.807 217.469 383.408C211.885 389.739 207.627 397.292 205.113 405.412C204.878 406.177 203.669 405.951 203.909 405.179C204.648 402.797 205.514 400.465 206.526 398.193C209.993 390.422 215.066 383.435 221.314 377.772C221.527 378.133 221.741 378.496 221.949 378.864Z"/>
<path fill="#D7D4F7" d="M229.929 394.526C226.922 398.038 224.235 401.844 221.936 405.883C219.158 410.743 216.92 415.927 215.314 421.312C215.315 421.318 215.309 421.324 215.31 421.33C215.081 422.101 213.877 421.868 214.105 421.091C214.215 420.727 214.325 420.363 214.446 419.998C215.303 417.268 216.304 414.586 217.469 411.982C219.807 406.724 222.753 401.748 226.204 397.182C227.216 395.842 228.272 394.54 229.372 393.289C229.56 393.701 229.747 394.113 229.929 394.526Z"/>
<path fill="#D7D4F7" d="M237.482 414.78C231.923 420.895 226.984 427.898 225.281 436.185C225.275 436.192 225.275 436.192 225.275 436.197C225.113 436.987 223.909 436.754 224.071 435.958C224.15 435.573 224.235 435.192 224.332 434.812C224.825 432.768 225.514 430.773 226.362 428.851C228.925 423.022 232.799 418.037 237.064 413.424C237.207 413.869 237.344 414.322 237.482 414.78Z"/>
<path fill="#D7D4F7" d="M239.097 420.331C233.67 425.289 229.512 431.666 227.079 438.666C227.07 438.697 227.06 438.722 227.044 438.754C226.73 439.393 225.722 438.848 225.978 438.124C226.046 437.926 226.12 437.722 226.194 437.523C226.849 435.708 227.625 433.936 228.505 432.223C231.084 427.225 234.567 422.719 238.728 419.007C238.853 419.442 238.977 419.883 239.097 420.331Z"/>
<path fill="#D7D4F7" d="M153.998 312.632C153.936 312.924 153.605 313.226 153.293 313.132C153.288 313.132 153.287 313.126 153.281 313.127C149.186 311.752 145.16 310.187 141.147 308.572C137.026 306.919 132.92 305.222 128.76 303.668C128.685 303.195 128.611 302.723 128.537 302.256C129.658 302.668 130.774 303.093 131.885 303.523C138.779 306.203 145.575 309.166 152.568 311.575C152.88 311.682 153.199 311.794 153.518 311.899C153.831 312.006 154.078 312.267 153.998 312.632Z"/>
<path fill="#D7D4F7" d="M143.319 290.63C143.248 290.635 143.165 290.624 143.087 290.595C140.258 289.613 137.478 288.496 134.754 287.249C131.811 285.9 128.94 284.401 126.147 282.764C126.099 282.253 126.052 281.742 126.01 281.236C131.301 284.402 136.89 287.053 142.685 289.13C142.999 289.248 143.312 289.361 143.631 289.473C144.299 289.7 143.934 290.616 143.319 290.63Z"/>
<path fill="#D7D4F7" d="M134.654 269.071C134.539 269.104 134.408 269.085 134.273 268.999C131.035 267.053 127.902 264.935 124.893 262.646C124.878 262.107 124.864 261.574 124.851 261.046C127.789 263.324 130.846 265.441 134.007 267.382C134.277 267.546 134.541 267.705 134.811 267.869C135.35 268.192 135.118 268.979 134.654 269.071Z"/>
<path fill="#D7D4F7" d="M165.921 339.05C165.815 339.119 165.669 339.142 165.502 339.102C160.933 337.905 156.375 336.635 151.849 335.297C145.822 333.506 139.84 331.592 133.896 329.55C133.774 329.07 133.658 328.59 133.548 328.115C136.257 329.056 138.974 329.966 141.702 330.851C149.482 333.367 157.334 335.662 165.248 337.743C165.416 337.789 165.578 337.836 165.745 337.876C166.337 338.032 166.321 338.809 165.921 339.05Z"/>
<path fill="#D7D4F7" d="M180.44 366.182C180.351 366.261 180.231 366.3 180.078 366.294C174.874 366.085 169.737 365.245 164.638 364.265C157.414 362.877 150.188 361.454 143.016 359.806C142.842 359.338 142.668 358.87 142.5 358.401C146.075 359.229 149.662 359.99 153.254 360.727C157.607 361.618 161.966 362.502 166.338 363.32C170.782 364.15 175.268 364.845 179.797 365.05C179.861 365.05 179.926 365.057 179.991 365.058C180.615 365.085 180.801 365.886 180.44 366.182Z"/>
<path fill="#D7D4F7" d="M169.415 345.815C169.299 345.908 169.143 345.956 168.966 345.934C163.151 345.22 157.359 344.331 151.602 343.261C146.594 342.333 141.606 341.272 136.656 340.084C136.524 339.63 136.398 339.17 136.266 338.717C137.079 338.914 137.896 339.104 138.708 339.296C148.639 341.61 158.685 343.398 168.8 344.662C168.936 344.681 169.072 344.694 169.209 344.713C169.813 344.79 169.806 345.528 169.415 345.815Z"/>
<path fill="#D7D4F7" d="M191.069 384.658C191.013 384.692 190.956 384.714 190.887 384.732C184.797 386.007 178.551 385.996 172.397 385.362C166.851 384.787 161.376 383.714 155.917 382.616C154.744 382.377 153.577 382.142 152.404 381.909C152.172 381.447 151.946 380.985 151.719 380.517C153.814 380.932 155.904 381.353 157.999 381.77C168.625 383.888 179.62 385.747 190.418 383.571C190.545 383.543 190.672 383.522 190.799 383.494C191.505 383.35 191.63 384.365 191.069 384.658Z"/>
<path fill="#D7D4F7" d="M195.508 392.065L195.467 392.068C194.498 392.214 193.539 392.347 192.574 392.469C184.671 393.468 176.701 393.861 168.743 393.823C165.356 393.808 161.97 393.717 158.585 393.554C158.338 393.138 158.097 392.715 157.856 392.292C162.478 392.523 167.104 392.637 171.736 392.591C179.428 392.514 187.126 392.013 194.759 390.934C194.98 390.905 195.201 390.876 195.421 390.842C196.2 390.728 196.28 391.953 195.508 392.065Z"/>
<path fill="#D7D4F7" d="M208.341 412.565C208.307 412.575 208.277 412.577 208.243 412.585C203.508 413.416 198.728 414.02 193.938 414.397C186.814 414.958 179.659 415.011 172.528 414.567C172.187 414.14 171.852 413.712 171.522 413.279C175.272 413.537 179.029 413.652 182.783 413.633C191.064 413.589 199.338 412.861 207.512 411.465C207.762 411.427 208.005 411.385 208.255 411.342C209.031 411.205 209.112 412.429 208.341 412.565Z"/>
<path fill="#D7D4F7" d="M219.629 429.197C219.477 429.196 219.319 429.203 219.166 429.203C214.736 429.29 210.314 429.322 205.881 429.285C198.817 429.223 191.76 429.007 184.71 428.642C184.286 428.208 183.857 427.782 183.439 427.348C187.375 427.566 191.318 427.73 195.258 427.853C202.95 428.085 210.646 428.133 218.335 427.992C218.74 427.984 219.138 427.977 219.543 427.969C219.671 427.965 219.785 427.997 219.877 428.055C220.03 428.143 220.129 428.301 220.159 428.476C220.236 428.807 220.063 429.186 219.629 429.197Z"/>
<path fill="#D7D4F7" d="M229.909 444.947C229.788 445.063 229.623 445.135 229.422 445.121C224.526 444.767 219.624 444.407 214.719 444.095C210.333 443.812 205.943 443.566 201.546 443.385C200.953 442.958 200.365 442.525 199.782 442.085C200.953 442.13 202.124 442.179 203.296 442.229C211.927 442.615 220.533 443.24 229.146 443.87C229.317 443.88 229.494 443.896 229.665 443.906C230.249 443.949 230.262 444.623 229.909 444.947Z"/>
<path fill="#515151" d="M525.978 518.225H230.611V242.11H525.978V518.225Z"/>
<path fill="#EDEDFF" d="M523.077 515.526H233.512V244.837H523.077V515.526Z"/>
<path stroke-miterlimit="10" stroke-width="1.984" stroke="#7979CC" d="M286.028 241.812L377.424 222.388L468.82 241.812"/>
<path fill="#202020" d="M533.523 249.879H223.068V238.524H533.523V249.879Z"/>
<path fill="#D7D4F7" d="M472.562 269.251C474.208 269.251 475.542 270.625 475.542 272.32C475.542 274.014 474.208 275.388 472.562 275.388C470.917 275.388 469.583 274.014 469.583 272.32C469.583 270.625 470.917 269.251 472.562 269.251Z"/>
<path fill="#D7D4F7" d="M481.719 276.381C483.365 276.381 484.699 277.754 484.699 279.449C484.699 281.143 483.365 282.518 481.719 282.518C480.074 282.518 478.74 281.143 478.74 279.449C478.74 277.754 480.074 276.381 481.719 276.381Z"/>
<path fill="#D7D4F7" d="M481.719 262.121C483.365 262.121 484.699 263.495 484.699 265.19C484.699 266.885 483.365 268.258 481.719 268.258C480.074 268.258 478.74 266.885 478.74 265.19C478.74 263.495 480.074 262.121 481.719 262.121Z"/>
<path fill="#D7D4F7" d="M482.234 278.717L473.664 272.319L482.234 265.921L481.205 264.458L470.673 272.319L481.204 280.181L482.234 278.717Z"/>
<path stroke-miterlimit="10" stroke-width="1.127" stroke="#B4BCEC" d="M317.983 397.831H491.337V464.361H317.983V397.831Z"/>
<path stroke-miterlimit="10" stroke-width="1.127" stroke="#B4BCEC" d="M317.983 453.272H491.337"/>
<path stroke-miterlimit="10" stroke-width="1.127" stroke="#B4BCEC" d="M317.983 442.184H491.337"/>
<path stroke-miterlimit="10" stroke-width="1.127" stroke="#B4BCEC" d="M317.983 431.097H491.337"/>
<path stroke-miterlimit="10" stroke-width="1.127" stroke="#B4BCEC" d="M317.983 420.008H491.337"/>
<path stroke-miterlimit="10" stroke-width="1.127" stroke="#B4BCEC" d="M317.983 408.92H491.337"/>
<path stroke-miterlimit="10" stroke-width="1.127" stroke="#B4BCEC" d="M462.445 397.832V464.361"/>
<path stroke-miterlimit="10" stroke-width="1.127" stroke="#B4BCEC" d="M433.552 397.832V464.361"/>
<path stroke-miterlimit="10" stroke-width="1.127" stroke="#B4BCEC" d="M404.66 397.832V464.361"/>
<path stroke-miterlimit="10" stroke-width="1.127" stroke="#B4BCEC" d="M375.768 397.832V464.361"/>
<path stroke-miterlimit="10" stroke-width="1.127" stroke="#B4BCEC" d="M346.876 397.832V464.361"/>
<path fill="#6075C1" d="M343.03 401.906H321.278V404.546H343.03V401.906Z"/>
<path fill="#6075C1" d="M343.03 413.125H321.278V415.765H343.03V413.125Z"/>
<path fill="#6075C1" d="M343.03 424.346H321.278V426.986H343.03V424.346Z"/>
<path fill="#6075C1" d="M343.03 435.565H321.278V438.205H343.03V435.565Z"/>
<path fill="#6075C1" d="M343.03 446.786H321.278V449.426H343.03V446.786Z"/>
<path fill="#6075C1" d="M488.11 401.906H466.359V404.546H488.11V401.906Z"/>
<path fill="#6075C1" d="M488.11 457.429H466.359V460.07H488.11V457.429Z"/>
<path fill="#F8A079" d="M457.466 457.429H453.371V460.07H457.466V457.429Z"/>
<path fill="#F8A079" d="M427.997 457.429H423.902V460.07H427.997V457.429Z"/>
<path fill="#F8A079" d="M399.113 457.429H395.018V460.07H399.113V457.429Z"/>
<path fill="#F8A079" d="M370.448 457.429H366.353V460.07H370.448V457.429Z"/>
<path fill="#A2C1F5" d="M377.444 370.096H336.364V368.179H377.444V370.096Z"/>
<path fill="#A2C1F5" d="M377.444 373.61H336.364V371.693H377.444V373.61Z"/>
<path fill="#A2C1F5" d="M377.444 376.885H336.364V374.968H377.444V376.885Z"/>
<path fill="#A2C1F5" d="M377.444 380.399H336.364V378.481H377.444V380.399Z"/>
<path fill="#A2C1F5" d="M377.444 383.673H336.364V381.756H377.444V383.673Z"/>
<path fill="#A2C1F5" d="M377.444 387.187H336.364V385.27H377.444V387.187Z"/>
<path fill="#A2C1F5" d="M377.444 390.462H336.364V388.544H377.444V390.462Z"/>
<path fill="#A2C1F5" d="M377.444 393.976H336.364V392.059H377.444V393.976Z"/>
<path fill="#D7D4F7" d="M456.077 275.253H271.485V268.629H456.077V275.253Z"/>
<path fill="#F8A079" d="M270.83 360.111H264.593V366.535H270.83V360.111Z"/>
<path stroke-miterlimit="10" stroke-width="2" stroke="#F8A079" d="M270.83 360.111H264.593V366.535H270.83V360.111Z"/>
<path fill="#F8A079" d="M279.094 360.111H272.856V366.535H279.094V360.111Z"/>
<path stroke-miterlimit="10" stroke-width="2" stroke="#F8A079" d="M279.094 360.111H272.856V366.535H279.094V360.111Z"/>
<path fill="#F8A079" d="M287.357 360.111H281.12V366.535H287.357V360.111Z"/>
<path stroke-miterlimit="10" stroke-width="2" stroke="#F8A079" d="M287.357 360.111H281.12V366.535H287.357V360.111Z"/>
<path fill="#F8A079" d="M295.621 360.111H289.384V366.535H295.621V360.111Z"/>
<path stroke-miterlimit="10" stroke-width="2" stroke="#F8A079" d="M295.621 360.111H289.384V366.535H295.621V360.111Z"/>
<path fill="#F8A079" d="M342.602 360.111H336.365V366.535H342.602V360.111Z"/>
<path stroke-miterlimit="10" stroke-width="2" stroke="#F8A079" d="M342.602 360.111H336.365V366.535H342.602V360.111Z"/>
<path fill="#F8A079" d="M350.865 360.111H344.628V366.535H350.865V360.111Z"/>
<path stroke-miterlimit="10" stroke-width="2" stroke="#F8A079" d="M350.865 360.111H344.628V366.535H350.865V360.111Z"/>
<path fill="#A2C1F5" d="M284.419 372.786L264.593 372.714V368.641L284.419 368.712V372.786Z"/>
<path fill="#A2C1F5" d="M329.738 380.18L264.593 380.181V376.108L329.738 376.107V380.18Z"/>
<path fill="#D7D4F7" d="M305.672 417.331H264.593V415.414H305.672V417.331Z"/>
<path fill="#D7D4F7" d="M305.672 420.845H264.593V418.928H305.672V420.845Z"/>
<path fill="#D7D4F7" d="M305.672 424.12H264.593V422.203H305.672V424.12Z"/>
<path fill="#D7D4F7" d="M305.672 427.634H264.593V425.717H305.672V427.634Z"/>
<path fill="#D7D4F7" d="M305.672 430.909H264.593V428.991H305.672V430.909Z"/>
<path fill="#D7D4F7" d="M305.672 434.423H264.593V432.505H305.672V434.423Z"/>
<path fill="#D7D4F7" d="M305.672 437.697H264.593V435.78H305.672V437.697Z"/>
<path fill="#D7D4F7" d="M305.672 441.211H264.593V439.294H305.672V441.211Z"/>
<path fill="#D7D4F7" d="M305.672 444.669H264.593V442.752H305.672V444.669Z"/>
<path fill="#D7D4F7" d="M305.672 448.184H264.593V446.267H305.672V448.184Z"/>
<path fill="#D7D4F7" d="M305.672 451.458H264.593V449.541H305.672V451.458Z"/>
<path fill="#D7D4F7" d="M305.672 454.972H264.593V453.055H305.672V454.972Z"/>
<path fill="#D7D4F7" d="M305.672 458.247H264.593V456.33H305.672V458.247Z"/>
<path fill="#D7D4F7" d="M305.672 461.761H264.593V459.843H305.672V461.761Z"/>
<path fill="#D7D4F7" d="M305.672 465.036H264.593V463.119H305.672V465.036Z"/>
<path fill="#D7D4F7" d="M305.672 468.55H264.593V466.632H305.672V468.55Z"/>
<path fill="#A2C1F5" d="M305.672 383.401H264.593V381.484H305.672V383.401Z"/>
<path fill="#A2C1F5" d="M305.672 386.916H264.593V384.999H305.672V386.916Z"/>
<path fill="#A2C1F5" d="M305.672 390.19H264.593V388.273H305.672V390.19Z"/>
<path fill="#A2C1F5" d="M305.672 393.704H264.593V391.787H305.672V393.704Z"/>
<path fill="#A2C1F5" d="M305.672 396.979H264.593V395.062H305.672V396.979Z"/>
<path fill="#A2C1F5" d="M305.672 400.493H264.593V398.575H305.672V400.493Z"/>
<path fill="#A2C1F5" d="M305.672 403.767H264.593V401.849H305.672V403.767Z"/>
<path fill="#A2C1F5" d="M305.672 407.281H264.593V405.364H305.672V407.281Z"/>
<path fill="#A2C1F5" d="M305.672 409.911H264.593V408.145H305.672V409.911Z"/>
<path fill="#A2C1F5" d="M305.672 413.426H264.593V411.509H305.672V413.426Z"/>
<path fill="#A2C1F5" d="M305.672 416.7H264.593V414.783H305.672V416.7Z"/>
<path fill="#A2C1F5" d="M305.672 420.214H264.593V418.297H305.672V420.214Z"/>
<path fill="#A2C1F5" d="M305.672 423.489H264.593V421.572H305.672V423.489Z"/>
<path fill="#A2C1F5" d="M305.672 427.003H264.593V425.085H305.672V427.003Z"/>
<path fill="#A2C1F5" d="M305.672 430.276H264.593V428.359H305.672V430.276Z"/>
<path fill="#A2C1F5" d="M305.672 433.791H264.593V431.874H305.672V433.791Z"/>
<path fill="#7979CC" d="M248.6 322.95V313.074C248.6 299.297 259.443 288.129 272.82 288.129H476.226C489.602 288.129 500.445 299.297 500.445 313.074V322.95C500.445 336.726 489.602 347.894 476.226 347.894H272.82C259.443 347.894 248.6 336.726 248.6 322.95Z"/>
<path fill="#C4C3FB" d="M475.266 341.918H273.778C263.077 341.918 254.402 332.984 254.402 321.962V314.062C254.402 303.041 263.077 294.106 273.778 294.106H475.266C485.968 294.106 494.642 303.041 494.642 314.062V321.962C494.642 332.984 485.968 341.918 475.266 341.918Z"/>
<path fill="white" d="M293.856 307.118V328.251H289.741V313.506L284.479 328.251H280.892L275.63 313.567V328.251H271.486V307.118H276.513L282.745 323.013L288.86 307.118H293.856Z"/>
<g opacity="0.597717">
<path fill="#7979CC" d="M311.388 305.607H310.608V330.416H311.388V305.607Z"/>
</g>
<mask height="242" width="177" y="348" x="469" maskUnits="userSpaceOnUse" style="mask-type:luminance" id="mask2_10_908">
<path fill="white" d="M469.961 348.765H645.461V589.765H469.961V348.765Z"/>
</mask>
<g mask="url(#mask2_10_908)">
<path fill="#B4BCEC" d="M594.459 566.748C594.459 569.215 578.796 571.215 559.471 571.215C540.148 571.215 524.484 569.215 524.484 566.748C524.484 564.28 540.148 562.281 559.471 562.281C578.796 562.281 594.459 564.28 594.459 566.748Z"/>
<path fill="#F8A079" d="M569.723 459.454C569.406 460.916 571.059 467.02 569.875 467.542C568.691 468.065 568.141 464.557 567.213 464.133C566.285 463.709 564.122 467.099 564.867 468.97C565.613 470.842 564.927 472.387 563.997 472.3C563.997 472.3 557.717 468.867 565.131 458.411C566.479 456.913 568.477 457.054 569.723 459.454Z"/>
<path fill="#F8A079" d="M567.774 436.06C567.723 438.072 565.842 454.752 565.267 458.231C564.987 460.718 568.896 462.884 569.595 460.298C572.381 449.345 574.976 438.293 575.138 436.759C575.536 434.163 569.738 430.641 567.774 436.06Z"/>
<path fill="#F8A079" d="M580.325 413.793C580.42 407.434 578.637 406.356 576.466 406.361C576.466 406.361 573.723 405.765 571.708 413.09C569.967 419.413 568.473 429.046 568.031 433.33C567.046 438.519 572.135 440.413 574.238 438.46C577.775 433.023 580.236 419.754 580.325 413.793Z"/>
<path fill="#F8A079" d="M561.262 537.63C561.262 537.63 554.152 557.953 550.381 563.939C552.015 568.19 565.46 558.6 566.379 556.617C567.299 554.633 567.227 550.644 567.227 550.644C567.227 550.644 563.592 549.147 566.168 538.944C562.237 538.7 561.262 537.63 561.262 537.63Z"/>
<path fill="#0A2C4E" d="M550.895 562.732C550.895 562.732 544.186 567.234 550.237 567.433C556.288 567.631 564.24 564.608 565.019 560.776C565.799 556.944 566.017 565.899 566.017 565.899L567.198 565.925C567.198 565.925 570.689 552.837 568.108 550.642C566.795 549.524 566.046 549.875 566.046 549.875C566.046 549.875 556.506 567.954 550.895 562.732Z"/>
<path fill="#0A2C4E" d="M554.066 502.216C553.373 508.672 552.985 523.789 557.566 544.05C559.601 546.042 568.028 544.423 567.775 542.891C567.522 541.359 569.466 501.846 569.467 501.806C568.676 493.915 554.938 493.803 554.066 502.216Z"/>
<path fill="#0A2C4E" d="M574.012 457.791C567.955 458.179 561.144 458.288 558.224 457.379C555.021 461.397 555.509 470.706 555.202 478.543C554.889 486.543 554.695 494.301 554.185 501.087C554.721 507.807 566.685 508.736 569.368 502.954C570.083 498.121 572.36 483.168 573.187 474.797C573.172 471.049 574.508 463.644 574.012 457.791Z"/>
<path fill="#F8A079" d="M581.744 543.157C581.333 549.169 580.722 557.572 580.453 558.542C589.633 558.86 589.503 558.542 589.503 558.542C589.503 558.542 587.912 550.493 587.189 542.677C586.884 539.379 581.98 539.695 581.744 543.157Z"/>
<path fill="#0A2C4E" d="M578.724 564.869C578.724 564.869 577.054 567.742 584.589 567.742C590.039 567.742 590.533 564.812 590.533 564.812C590.533 564.812 590.124 558.946 587.993 554.77C585.768 550.414 585.12 550.46 584.059 551.224C582.999 551.989 579.041 561.265 578.724 564.869Z"/>
<path fill="#2A3E9D" d="M581.196 562.255L583.34 567.777C583.34 567.777 583.105 560.289 582.68 560.399C582.256 560.508 581.196 562.255 581.196 562.255Z"/>
<path fill="#2A3E9D" d="M585.543 567.742C585.543 567.742 585.543 560.833 586.71 560.398C587.983 562.692 587.771 562.474 587.771 563.238C587.771 564.003 585.543 567.742 585.543 567.742Z"/>
<path fill="#0A2C4E" d="M572.945 502.615C572.948 502.692 572.953 502.77 572.955 502.846C572.786 523.128 580.047 546.636 580.047 546.636L588.511 545.227C588.511 545.227 588.347 521.903 587.359 501.164C586.204 493.127 574.222 493.671 572.945 502.615Z"/>
<path fill="#0A2C4E" d="M587.298 502.009C588.272 491.89 589.091 483.005 589.317 479.497C589.97 469.36 588.594 458.895 588.594 458.895C588.594 458.895 579.08 458.115 571.164 457.065C570.604 462.9 570.239 465.868 570.477 474.737C570.546 480.196 573.355 492.842 572.837 501.818C573.434 509.751 585.811 509.523 587.298 502.009Z"/>
<path fill="#F8A079" d="M572.049 398.549L571.012 408.5L580.563 406.39L578.264 397.003L572.049 398.549Z"/>
<path fill="#DEE9FB" d="M568.013 407.962C568.013 407.962 579.187 402.761 583.263 404.919C586.85 406.818 587.186 408.985 587.892 411.296C589.162 415.458 585.478 430.5 586.066 438.68C586.654 446.859 591.696 456.751 589.424 459.673C587.152 462.596 558.893 460.376 557.289 458.392C555.685 456.408 557.369 445.307 560.188 439.942C563.007 434.58 561.919 418.778 562.549 414.903C563.179 411.027 568.013 407.962 568.013 407.962Z"/>
<path fill="#D7D4F7" d="M568.722 437.772C573.137 424.77 572.426 417.956 572.235 416.995C571.706 414.334 569.619 407.232 568.026 407.971C566.885 408.501 561.336 411.802 562.397 418.555C562.536 419.433 562.298 421.161 562.287 422.04C562.272 423.307 562.256 424.576 562.224 425.843C562.113 430.319 562.324 435.942 560.192 439.999C557.368 445.37 555.683 456.488 557.29 458.474C558.023 459.38 564.316 460.334 571.158 460.825C571.173 460.82 572.173 460.902 572.186 460.896C572.955 460.525 565.404 449.431 568.722 437.772Z"/>
<path fill="#F8A079" d="M548.497 457.166C547.583 458.334 543.282 460.533 543.618 461.815C543.954 463.097 545.926 462.068 546.637 461.841C546.569 463.345 545.737 464.398 543.89 466.08C542.423 467.418 541.215 469.186 541.857 469.883C541.857 469.883 548.348 472.813 551.698 460.307C552.001 458.284 551.089 456.678 548.497 457.166Z"/>
<path fill="#F8A079" d="M556.878 436.914C556.259 438.82 549.725 454.173 548.186 457.32C547.212 459.608 550.362 462.872 551.767 460.617C557.55 451.011 563.177 441.25 563.767 439.834C564.886 437.478 560.302 432.339 556.878 436.914Z"/>
<path fill="#F8A079" d="M570.74 415.922C571.035 409.581 569.295 408.507 567.134 408.516C567.134 408.516 564.423 407.925 562.185 415.23C560.254 421.538 558.252 431.462 557.439 435.395C556.295 440.57 559.204 443.895 561.358 441.945C565.693 438.337 570.463 421.864 570.74 415.922Z"/>
<path fill="#F8A079" d="M567.826 398.013C567.826 398.013 562.128 390.496 569.204 380.584C576.281 370.673 586.139 380.116 585.628 386.611C585.07 393.692 585.329 400.767 575.581 401.233C569.958 401.503 567.826 398.013 567.826 398.013Z"/>
<path fill="#5651BA" d="M586.827 389.881C587.936 385.048 587.391 378.46 582.177 375.819C574.504 371.933 566.68 374.253 566.165 378.345C566.165 378.345 564.567 388.188 572.972 390.288C575.408 390.754 574.891 387.136 575.655 386.748C576.608 386.263 578.978 387.856 577.95 390.59C577.099 392.849 580.1 396.267 582.829 395.802C582.978 396.664 583.464 396.786 583.464 396.786C584.271 402.504 588.019 398.135 589.552 401.97C591.493 406.824 595.774 401.976 596.745 399.819C598.389 393.988 591.286 389.706 586.827 389.881Z"/>
<path fill="#009F9D" d="M582.447 394.668C582.447 394.668 583.051 397.141 584.083 396.168C585.115 395.195 586.287 391.914 586.756 391.045C587.222 390.175 587.448 389.067 586.544 389.266C585.641 389.465 582.447 394.668 582.447 394.668Z"/>
</g>
<path stroke-miterlimit="10" stroke-width="5.634" stroke="#3644AC" d="M245.614 548.552C245.614 548.552 204.712 591.917 264.009 597.619C444.079 614.868 430.366 550.236 430.366 550.236"/>
<path stroke-miterlimit="10" stroke-width="5.634" stroke="#3644AC" d="M402.024 555.667C402.024 555.667 386.455 587.809 461.168 577.315C519.174 569.17 564.563 587.964 558.24 599.113C549.268 616.108 492.494 611.259 502.015 592.628C508.607 579.729 522.129 581.823 526.272 557.363"/>
<path fill="#2A2A7B" d="M437.947 557.363H424.764V551.254H437.947V557.363Z"/>
<path fill="#2A2A7B" d="M408.286 557.363H395.103V551.254H408.286V557.363Z"/>
<path fill="#7979CC" d="M450.31 551.254H362.482C349.191 551.254 338.416 540.158 338.416 526.469V495.255C338.416 481.567 349.191 470.47 362.482 470.47H450.31C463.601 470.47 474.376 481.567 474.376 495.255V526.469C474.376 540.158 463.601 551.254 450.31 551.254Z"/>
<path fill="#DEE9FB" d="M366.1 532.246H358.191L358.184 505.063H366.094L366.1 532.246Z"/>
<path fill="#DEE9FB" d="M375.987 532.246H368.078L368.072 496.112H375.982L375.987 532.246Z"/>
<path fill="#DEE9FB" d="M385.874 532.246H377.965L377.964 512.367H385.873L385.874 532.246Z"/>
<path fill="#DEE9FB" d="M395.761 532.246H387.852L387.835 502.203H395.745L395.761 532.246Z"/>
<path fill="#DEE9FB" d="M405.648 532.246H397.739L397.723 494.014H405.632L405.648 532.246Z"/>
<path fill="#DEE9FB" d="M415.535 532.246H407.626L407.625 506.038H415.535L415.535 532.246Z"/>
<path fill="#DEE9FB" d="M425.423 532.246H417.514L417.513 502.839H425.422L425.423 532.246Z"/>
<path fill="#DEE9FB" d="M435.31 532.246H427.4L427.395 495.978H435.304L435.31 532.246Z"/>
<path fill="#DEE9FB" d="M445.197 532.246H437.287L437.282 507.601H445.191L445.197 532.246Z"/>
<path fill="#DEE9FB" d="M455.084 532.246H447.175L447.174 493.267H455.084L455.084 532.246Z"/>
<path stroke-miterlimit="10" stroke-width="1.127" stroke="#EDEDFF" d="M362.141 499.451L371.97 482.331L381.86 497.948L391.747 490.013L401.991 482.515L411.579 501.331L421.408 495.465L431.845 490.013C431.845 490.013 432.675 489.107 433.84 487.836"/>
<path fill="#2A2A7B" d="M532.864 557.363H519.681V551.254H532.864V557.363Z"/>
<path fill="#7979CC" d="M596.56 551.254H508.732C495.441 551.254 484.666 540.158 484.666 526.469V495.255C484.666 481.567 495.441 470.47 508.732 470.47H596.56C609.851 470.47 620.626 481.567 620.626 495.255V526.469C620.626 540.158 609.851 551.254 596.56 551.254Z"/>
<path fill="#DEE9FB" d="M512.35 532.246H504.441L504.434 505.063H512.344L512.35 532.246Z"/>
<path fill="#DEE9FB" d="M522.237 532.246H514.328L514.322 496.112H522.232L522.237 532.246Z"/>
<path fill="#DEE9FB" d="M532.124 532.246H524.215L524.214 512.367H532.123L532.124 532.246Z"/>
<path fill="#DEE9FB" d="M542.011 532.246H534.102L534.085 502.203H541.995L542.011 532.246Z"/>
<path fill="#DEE9FB" d="M551.898 532.246H543.989L543.973 494.014H551.882L551.898 532.246Z"/>
<path fill="#DEE9FB" d="M561.785 532.246H553.876L553.875 506.038H561.785L561.785 532.246Z"/>
<path fill="#DEE9FB" d="M571.673 532.246H563.764L563.763 502.839H571.672L571.673 532.246Z"/>
<path fill="#DEE9FB" d="M581.56 532.246H573.65L573.645 495.978H581.554L581.56 532.246Z"/>
<path fill="#DEE9FB" d="M591.447 532.246H583.537L583.532 507.601H591.441L591.447 532.246Z"/>
<path fill="#DEE9FB" d="M601.334 532.246H593.425L593.424 493.267H601.334L601.334 532.246Z"/>
<path stroke-miterlimit="10" stroke-width="1.127" stroke="#EDEDFF" d="M508.391 499.451L518.22 482.331L528.11 497.948L537.997 490.013L548.241 482.515L557.829 501.331L567.658 495.465L578.095 490.013C578.095 490.013 578.925 489.107 580.09 487.836"/>
</g>
<mask height="422" width="410" y="236" x="190" maskUnits="userSpaceOnUse" style="mask-type:luminance" id="mask3_10_908">
<path fill="white" d="M190.125 236.18H599.625V657.93H190.125V236.18Z"/>
</mask>
<g mask="url(#mask3_10_908)">
<path fill="#B4BCEC" d="M329.59 608.728C329.59 611.259 313.523 613.309 293.703 613.309C273.884 613.309 257.817 611.259 257.817 608.728C257.817 606.198 273.884 604.147 293.703 604.147C313.523 604.147 329.59 606.198 329.59 608.728Z"/>
<path fill="#F8A079" d="M276.078 531.483C276.078 531.483 272.242 531.489 272.567 522.884C272.809 516.455 276.112 519.971 276.112 519.971C276.112 519.971 277.903 521.485 279.865 524.817C281.827 528.148 276.078 531.483 276.078 531.483Z"/>
<path fill="#6691DD" d="M271.402 523.387L277.555 521.636C277.555 521.636 275.668 510.298 273.784 502.431C273.013 499.21 272.676 497.3 271.91 492.72C269.875 487.782 261.428 488.46 263.119 494.152C263.514 495.53 263.989 497.231 264.652 499.654C265.699 503.476 271.402 523.387 271.402 523.387Z"/>
<path fill="#6691DD" d="M272.121 493.381C274.104 489.654 276.181 485.699 277.9 481.896C279.835 477.615 283.852 472.848 281.031 468.544C278.565 464.783 276.422 465.264 273.734 467.087C270.952 468.973 267.105 480.787 265.623 484.701C264.672 487.209 264.16 488.603 263.222 490.983C261.484 495.314 269.311 498.68 272.121 493.381Z"/>
<path fill="#2A3E9D" d="M367.781 412.889L376.346 421.525L359.062 439.656L350.498 431.02L367.781 412.889Z"/>
<path fill="#5651BA" d="M459.35 425.468C433.294 452.803 390.654 453.27 364.113 426.509C337.571 399.749 337.178 355.895 363.236 328.559C389.292 301.224 431.931 300.758 458.472 327.518C485.013 354.279 485.407 398.132 459.35 425.468Z"/>
<path fill="#EDEDFF" d="M451.737 417.792C429.808 440.797 393.924 441.189 371.588 418.668C349.25 396.147 348.92 359.241 370.848 336.235C392.777 313.23 428.661 312.837 450.999 335.358C473.335 357.88 473.667 394.785 451.737 417.792Z"/>
<path fill="#5651BA" d="M347.191 427.663L236.949 543.316C234.829 554.032 245.464 561.345 252.176 558.667L362.417 443.014C363.354 439.53 352.689 427.634 347.191 427.663Z"/>
<path fill="#DDA905" d="M284.479 608.728C284.479 608.728 289.025 608.728 287.509 606.387C285.994 604.046 282.964 604.046 280.691 603.266C278.419 602.486 277.142 599.411 277.142 597.071C277.142 594.731 273.289 596.245 273.289 596.245C273.289 596.245 272.079 600.58 271.189 603.266C270.307 605.928 270.086 608.728 271.601 608.728H284.479Z"/>
<path fill="#0A2C4E" d="M272.935 556.31C272.629 559.14 272.28 561.801 271.858 564.227C270.629 571.306 270.822 583.716 272.212 597.772C273.707 600.127 278.261 599.396 278.275 597.836C278.289 596.276 284.23 563.577 285.03 558.906C285.036 558.869 285.045 558.826 285.051 558.787C285.577 550.851 275.016 548.179 272.935 556.31Z"/>
<path fill="#0A2C4E" d="M289.87 513.219C284.36 513.663 278.5 512.036 275.832 511.155C272.962 515.197 273.705 526.279 273.517 534.108C273.324 542.099 273.237 549.848 272.849 556.629C273.415 563.333 282.72 564.17 285.096 558.373C285.691 553.539 288.658 538.575 289.314 530.207C289.258 526.466 290.39 519.058 289.87 513.219Z"/>
<path fill="#DDA905" d="M318.466 605.723C318.466 605.723 318.579 605.789 318.756 605.905C319.791 606.58 323.005 608.941 318.478 609.623C313.178 610.421 308.63 609.657 304.842 609.671C301.054 609.684 301.054 609.684 301.803 606.562C302.551 603.44 303.297 599.539 303.292 597.979C303.288 596.419 307.075 596.406 307.075 596.406C307.075 596.406 307.091 601.863 308.609 602.639C310.126 603.413 316.189 604.172 318.466 605.723Z"/>
<path fill="#0A2C4E" d="M294.203 558.015C294.207 558.091 294.212 558.17 294.216 558.246C294.376 578.529 302.316 600.643 302.316 600.643L307.845 599.276C307.845 599.276 307.57 575.585 307.252 556.348C306.081 548.328 295.222 549.052 294.203 558.015Z"/>
<path fill="#0A2C4E" d="M307.271 556.166C306.863 545.989 306.471 537.06 306.23 533.55C305.532 523.405 302.975 513.247 302.975 513.247C302.975 513.247 294.35 513.932 287.122 514.106C287.359 519.974 287.409 522.972 288.744 531.722C289.497 537.122 293.614 549.221 294.287 558.195C295.826 565.964 306.889 563.84 307.271 556.166Z"/>
<path fill="#F8A079" d="M286.063 454.829C286.917 458.006 284.761 464.082 284.761 464.082L293.814 463.759C293.378 462.14 293.852 458.967 295.208 455.385L286.063 454.829Z"/>
<path fill="#6691DD" d="M306.188 514.891C306.188 514.891 290.533 524.022 273.599 516.055C275.472 502.741 274.952 485.615 274.123 483.307C274.123 483.307 269.957 470.988 272.158 468.571C274.361 466.155 283.314 461.159 284.072 461.132C284.83 461.105 291.501 459.633 295.44 460.725C301.062 462.286 304.626 463.427 304.249 475.996C304.037 483.046 303.418 498.626 304.318 503.269C305.217 507.913 306.188 514.891 306.188 514.891Z"/>
<path fill="#B4BCEC" d="M276.275 486.887C276.062 486.435 275.329 485.488 274.844 485.569C274.727 485.589 274.623 485.61 274.523 485.631C275.075 491.278 275.171 504.978 273.61 516.052C276.041 517.196 278.443 517.977 280.779 518.495C279.583 497.163 279.36 493.405 276.275 486.887Z"/>
<path fill="#8795D7" d="M302.132 475.92C301.688 478.241 301.406 483.802 301.983 486.089C302.451 487.94 302.847 489.848 303.72 491.527C303.727 485.889 303.945 479.751 304.236 476.02C304.297 475.233 304.313 473.732 304.097 472.358C304.097 472.358 302.344 474.809 302.132 475.92Z"/>
<path fill="#F8A079" d="M349.989 454.954C349.989 454.954 353.919 458.34 347.584 463.877C341.25 469.412 341.637 462.275 341.637 462.275L343.787 462.26C343.787 462.26 342.533 461.523 342.99 457.679C343.446 453.835 349.989 454.954 349.989 454.954Z"/>
<path fill="#6691DD" d="M344.679 466.876L341.596 461.197C341.596 461.197 331.316 465.784 324.316 469.537C321.45 471.073 319.722 471.865 315.57 473.721C311.374 476.921 313.974 485.131 318.963 482.091C320.174 481.37 321.671 480.491 323.808 479.253C327.179 477.299 344.679 466.876 344.679 466.876Z"/>
<path fill="#6691DD" d="M317.529 473.299C313.979 471.096 310.21 468.785 306.576 466.846C302.485 464.663 298.001 460.345 293.702 462.981C289.945 465.286 290.33 467.482 291.999 470.302C293.727 473.219 305.075 477.731 308.826 479.436C311.23 480.53 312.568 481.121 314.847 482.196C318.995 484.182 322.577 476.422 317.529 473.299Z"/>
<path fill="#F8A079" d="M296.347 443.593C296.347 443.593 299.308 453.222 295.806 456.327C293.277 458.569 287.899 460.092 286.017 458.508C284.853 457.528 282.904 454.512 282.005 449.899C280.676 443.072 282.62 441.067 284.712 439.817C286.805 438.568 293.377 436.337 296.347 443.593Z"/>
<path fill="#0A2C4E" d="M297.524 439.755C298.561 443.078 295.873 445.244 296.464 448.271C297.054 451.297 293.776 450.438 293.932 447.247C294.087 444.057 291.552 445.007 291.248 447.439C290.76 451.363 292.721 456.98 284.227 455.289C278.096 454.069 279.473 446.862 279.776 444.429C280.079 441.996 279.636 439.725 284.561 437.07C291.622 433.261 296.488 436.432 297.524 439.755Z"/>
<path fill="#F76C1A" d="M412.367 417.945C411.473 418.807 410.482 419.492 409.432 420.004L410.784 423.538C412.252 422.849 413.64 421.911 414.884 420.711C417.984 417.72 419.593 413.705 419.685 409.658L416.001 409.431C415.969 412.545 414.751 415.644 412.367 417.945Z"/>
<path fill="#6D66C8" d="M389.523 407.099L393.195 407.486C393.581 404.979 394.749 402.579 396.688 400.707C401.318 396.24 408.578 396.473 412.905 401.229C415.002 403.535 416.022 406.48 415.991 409.411L419.676 409.639C419.764 405.7 418.417 401.728 415.599 398.629C409.882 392.344 400.287 392.036 394.17 397.939C391.555 400.462 390.002 403.713 389.523 407.099Z"/>
<path fill="#F8A079" d="M393.203 407.464L389.531 407.078C388.89 411.614 390.179 416.391 393.453 419.99L396.148 417.389C393.634 414.625 392.666 410.943 393.203 407.464Z"/>
<path fill="#EEA935" d="M396.155 417.405L393.46 420.005C398.015 425.013 405.029 426.224 410.789 423.524L409.438 419.989C405.049 422.135 399.647 421.244 396.155 417.405Z"/>
<path fill="#F76C1A" d="M433.255 336.54C434.724 337.889 435.933 339.427 436.882 341.084L442.183 338.345C440.9 336.021 439.24 333.865 437.195 331.986C432.093 327.302 425.618 325.226 419.306 325.661L419.486 331.772C424.335 331.375 429.332 332.937 433.255 336.54Z"/>
<path fill="#6D66C8" d="M419.684 375.805L419.755 369.69C415.799 369.413 411.898 367.834 408.706 364.903C401.087 357.908 400.401 345.891 407.174 338.065C410.458 334.271 414.892 332.163 419.457 331.79L419.277 325.675C413.137 326.098 407.153 328.895 402.74 333.994C393.79 344.336 394.696 360.214 404.763 369.458C409.067 373.41 414.349 375.504 419.684 375.805Z"/>
<path fill="#F8A079" d="M419.722 369.675L419.651 375.791C426.8 376.194 434.045 373.377 439.171 367.455L434.735 363.382C430.798 367.931 425.209 370.06 419.722 369.675Z"/>
<path fill="#EEA935" d="M434.759 363.37L439.193 367.442C446.325 359.201 447.193 347.449 442.161 338.336L436.857 341.075C440.83 348.008 440.225 357.053 434.759 363.37Z"/>
</g>
<mask height="242" width="177" y="373" x="115" maskUnits="userSpaceOnUse" style="mask-type:luminance" id="mask4_10_908">
<path fill="white" d="M115.83 373.55H291.33V614.55H115.83V373.55Z"/>
</mask>
<g mask="url(#mask4_10_908)">
<path fill="#B4BCEC" d="M236.565 584.765C236.565 587.704 217.904 590.087 194.883 590.087C171.864 590.087 153.202 587.704 153.202 584.765C153.202 581.826 171.864 579.443 194.883 579.443C217.904 579.443 236.565 581.826 236.565 584.765Z"/>
<path fill="#F8A079" d="M184.933 524.479C184.933 524.479 172.331 556.139 172.846 563.651C173.361 571.164 171.874 574.641 173.84 576.58C175.805 578.519 179.294 579.075 179.294 579.075C179.294 579.075 176.741 565.433 177.856 562.825C178.971 560.216 194.76 534.173 194.689 529.982C194.618 525.791 184.933 524.479 184.933 524.479Z"/>
<path fill="#0A2C4E" d="M165.341 576.312L167.051 577.059L169.481 571.528C169.481 571.528 170.227 578.515 173.074 580.407C175.614 582.093 177.704 582.536 179.247 583.247C180.79 583.956 183.035 580.861 180.685 577.717C180.685 577.717 180.282 576.498 178.371 576.651C176.459 576.803 173.741 574.521 173.269 569.143C172.796 563.764 173.164 562.902 173.164 562.902C173.164 562.902 171.219 560.975 168.973 564.069C166.729 567.165 165.341 576.312 165.341 576.312Z"/>
<path fill="#F8A079" d="M198.833 526.196C198.833 526.196 202.892 562.578 206.728 568.852C210.565 575.127 210.849 578.866 213.424 579.599C216 580.332 219.267 579.128 219.267 579.128C219.267 579.128 210.902 568.515 210.688 565.711C210.475 562.907 212.508 528.944 210.554 525.341C208.6 521.736 198.833 526.196 198.833 526.196Z"/>
<path fill="#0A2C4E" d="M205.204 583.747L207.032 583.877L207.369 577.266C207.369 577.266 211.245 582.565 214.544 583.271C216.948 583.785 220.344 584.492 221.868 583.684C223.973 582.566 218.805 575.613 217.455 577.393C216.252 578.981 212.448 577.797 209.589 573.325C206.728 568.852 206.658 567.918 206.658 567.918C206.658 567.918 204.083 567.185 203.533 570.992C202.983 574.798 205.204 583.747 205.204 583.747Z"/>
<path fill="#0A2C4E" d="M180.457 525.979C180.457 525.979 179.62 529.428 186.318 530.29C193.015 531.152 211.432 531.152 211.432 531.152C211.432 531.152 216.455 532.015 216.455 526.841C216.455 521.668 216.455 500.112 215.618 497.525C214.782 494.938 213.949 486.019 210.6 483.432C207.251 480.846 187.662 480.282 187.662 480.282C187.662 480.282 178.783 488.904 179.62 494.938C180.457 500.975 180.457 525.979 180.457 525.979Z"/>
<path fill="#F8A079" d="M220.254 418.242C220.254 418.242 222.157 413.42 216.487 411.934C210.816 410.448 211.078 414.427 211.449 416.296C211.82 418.165 215.766 418.837 217.386 419.262C219.005 419.686 220.254 418.242 220.254 418.242Z"/>
<path fill="#DCE7F8" d="M221.223 416.054L216.205 418.658C217.436 420.835 224.856 435.276 229.743 444.291C229.743 444.291 229.729 444.283 230.305 445.384C233.871 451.133 240.965 446.109 238.229 440.566C237.563 439.434 236.825 438.181 236.231 437.368C228.06 426.184 221.237 415.329 221.223 416.054Z"/>
<path fill="#DCE7F8" d="M233.903 440.055C228.886 439.376 215.273 437.682 208.826 438.354C206.211 438.627 202.086 443.366 208.873 446.682C215.101 449.725 224.762 448.819 235.366 448.745C240.965 448.517 239.875 441.67 233.903 440.055Z"/>
<path fill="#A2C1F5" d="M212.479 438.248C216.329 438.543 214.053 444.197 215.33 445.701C217.04 447.714 220.13 446.453 228.889 447.853C229.646 447.951 232.611 448.826 233.132 448.811C222.747 449.095 213.309 449.693 207.636 446.038C207.636 446.038 205.885 445.075 205.384 443.546C204.585 441.11 205.686 437.728 212.479 438.248Z"/>
<path fill="#0A2C4E" d="M180.087 451.132C180.087 451.132 167.891 460.916 165.477 450.065C163.063 439.215 176.012 440.554 177.365 420.436C178.719 400.319 193.572 403.076 196.065 402.668C198.557 402.26 209.743 409.078 206.464 421.725C203.183 434.373 211.428 439.719 206.999 445.035C202.571 450.351 180.087 451.132 180.087 451.132Z"/>
<path fill="#DCE7F8" d="M186.812 472.249C186.812 472.249 185.559 463.71 182.714 456.984C179.869 450.257 176.146 442.718 184.394 439.667C192.643 436.616 208.553 435.715 211.273 439.865C213.993 444.016 216.103 457.066 210.555 459.709C206.451 461.663 209.214 466.673 210.175 469.202C210.784 470.801 214.273 484.467 214.564 490.478C214.855 496.489 183.79 496.529 180.274 493.284C177.513 488.275 186.937 474.825 186.812 472.249Z"/>
<path fill="#5651BA" d="M204.338 462.055C203.375 462.204 201.433 464.773 197.902 464.737C193.335 464.691 191.679 462.476 189.583 460.345C186.955 457.108 186.191 454.659 184.988 449.284C184.696 447.978 184.547 446.627 184.061 445.384C183.632 444.287 182.955 443.316 182.255 442.379C181.995 442.029 181.695 441.673 181.361 441.384C177.29 445.034 180.317 451.29 182.718 456.968C185.563 463.697 186.817 472.239 186.817 472.239C186.942 474.815 177.515 488.268 180.277 493.28C180.985 493.934 182.813 494.455 185.276 494.82C187.076 493.08 188.533 490.535 189.522 488.789C190.665 486.773 191.539 484.582 191.863 482.264C192.117 480.452 192.032 478.611 191.946 476.782C191.841 474.538 191.736 472.295 191.63 470.052C191.599 469.392 191.564 468.732 191.517 468.072C191.524 468.077 191.528 468.083 191.535 468.085C201.715 472.739 203.611 464.09 204.631 464.262C205.155 464.35 209.136 462.708 207.925 462.799C206.714 462.891 205.301 461.905 204.338 462.055Z"/>
<path fill="#F8A079" d="M191.103 440.065C191.103 440.065 192.232 446.03 198.053 444.839C203.874 443.647 201.991 439.447 201.991 439.447C201.991 439.447 198.141 429.331 198.855 426.707C199.567 424.083 192.112 426.229 192.112 426.229C192.112 426.229 194.245 435.581 191.103 440.065Z"/>
<path fill="#F8A079" d="M142.279 453.081C142.279 453.081 142.218 446.773 137.524 445.76C132.83 444.746 132.701 448.653 133.051 450.302C133.401 451.951 138.607 453.862 139.947 454.152C141.288 454.441 142.279 453.081 142.279 453.081Z"/>
<path fill="#DCE7F8" d="M141.567 448.836L139.299 454.426C141.414 455.682 152.363 463.078 163.212 469.145C163.212 469.145 163.195 469.145 164.226 469.805C170.081 472.956 174.447 465.418 168.736 461.597C167.613 460.957 166.441 460.373 165.537 459.975C153.093 454.489 141.224 448.196 141.567 448.836Z"/>
<path fill="#DCE7F8" d="M170.229 468.17C173.432 464.349 182.012 453.882 184.991 447.929C186.2 445.515 184.938 438.797 178.842 442.349C173.248 445.606 168.709 454.458 163.049 463.552C160.2 468.481 165.824 472.174 170.229 468.17Z"/>
<path fill="#F8A079" d="M198.244 410.016C198.244 410.016 209.521 423.267 200.276 429.551C191.029 435.835 184.218 421.057 183.883 418.728C183.547 416.399 184.179 409.938 190.169 408.161C196.16 406.385 198.244 410.016 198.244 410.016Z"/>
<path fill="#F8A079" d="M183.992 419.289C183.992 419.289 181.376 418.852 181.742 421.39C182.107 423.927 186.75 426.629 187.215 423.956C187.682 421.282 183.992 419.289 183.992 419.289Z"/>
<path fill="#0A2C4E" d="M180.955 416.722C180.955 416.722 182.599 422.746 186.804 419.699C191.008 416.652 188.83 412.289 194.991 412.068C201.152 411.847 202.957 402.902 196.575 401.586C190.192 400.269 180.804 404.95 179.957 409.808C179.11 414.664 180.955 416.722 180.955 416.722Z"/>
</g>
</g>
</g>
<defs>
<clipPath id="clip0_10_908">
<rect fill="white" height="723" width="702"/>
</clipPath>
</defs>
</svg>