<?xml version="1.0" standalone="no"?>
<svg xmlns:xlink="http://www.w3.org/1999/xlink" id="wave" style="transform:rotate(180deg); transition: 0.3s" viewBox="0 0 1440 490" version="1.1" xmlns="http://www.w3.org/2000/svg"><defs><linearGradient id="sw-gradient-0" x1="0" x2="0" y1="1" y2="0"><stop stop-color="rgba(55.967, 208.013, 94.172, 1)" offset="0%"/><stop stop-color="rgba(247, 250, 253, 1)" offset="100%"/></linearGradient></defs><path style="transform:translate(0, 0px); opacity:1" fill="url(#sw-gradient-0)" d="M0,294L26.7,318.5C53.3,343,107,392,160,359.3C213.3,327,267,212,320,138.8C373.3,65,427,33,480,81.7C533.3,131,587,261,640,326.7C693.3,392,747,392,800,383.8C853.3,376,907,359,960,359.3C1013.3,359,1067,376,1120,318.5C1173.3,261,1227,131,1280,122.5C1333.3,114,1387,229,1440,294C1493.3,359,1547,376,1600,334.8C1653.3,294,1707,196,1760,130.7C1813.3,65,1867,33,1920,32.7C1973.3,33,2027,65,2080,81.7C2133.3,98,2187,98,2240,138.8C2293.3,180,2347,261,2400,285.8C2453.3,310,2507,278,2560,220.5C2613.3,163,2667,82,2720,57.2C2773.3,33,2827,65,2880,122.5C2933.3,180,2987,261,3040,253.2C3093.3,245,3147,147,3200,122.5C3253.3,98,3307,147,3360,163.3C3413.3,180,3467,163,3520,171.5C3573.3,180,3627,212,3680,261.3C3733.3,310,3787,376,3813,408.3L3840,441L3840,490L3813.3,490C3786.7,490,3733,490,3680,490C3626.7,490,3573,490,3520,490C3466.7,490,3413,490,3360,490C3306.7,490,3253,490,3200,490C3146.7,490,3093,490,3040,490C2986.7,490,2933,490,2880,490C2826.7,490,2773,490,2720,490C2666.7,490,2613,490,2560,490C2506.7,490,2453,490,2400,490C2346.7,490,2293,490,2240,490C2186.7,490,2133,490,2080,490C2026.7,490,1973,490,1920,490C1866.7,490,1813,490,1760,490C1706.7,490,1653,490,1600,490C1546.7,490,1493,490,1440,490C1386.7,490,1333,490,1280,490C1226.7,490,1173,490,1120,490C1066.7,490,1013,490,960,490C906.7,490,853,490,800,490C746.7,490,693,490,640,490C586.7,490,533,490,480,490C426.7,490,373,490,320,490C266.7,490,213,490,160,490C106.7,490,53,490,27,490L0,490Z"/></svg>